<svg id="Layer_1" data-name="Layer 1" xmlns="http://www.w3.org/2000/svg" viewBox="0 0 394.85 394.85"><defs><style>.cls-1{fill:#dbd61f;}</style></defs><title>logo</title><circle cx="197.42" cy="197.42" r="197.42"/><path class="cls-1" d="M502.3,310.88c-9.59,0-17.37,7-17.37,15.62s7.78,15.63,17.37,15.63,17.37-7,17.37-15.63S511.89,310.88,502.3,310.88Zm83.4,0c-9.59,0-17.38,7-17.38,15.62s7.79,15.63,17.38,15.63,17.37-7,17.37-15.63S595.29,310.88,585.7,310.88ZM544,189c-76.73,0-139,56-139,125s62.27,125,139,125,139-56,139-125S620.73,189,544,189Zm0,225c-61.3,0-111.2-44.88-111.2-100a90.69,90.69,0,0,1,.7-10.75c32.8-13.12,58.79-37.25,72.41-67.12,25.16,32,66.59,52.87,113.43,52.87a150.44,150.44,0,0,0,31.27-3.25A90.29,90.29,0,0,1,655.2,314C655.2,369.12,605.3,414,544,414Z" transform="translate(-345.81 -115.2)"/></svg>